<?xml version="1.0" encoding="utf-8"?>
<!-- Generator: Adobe Illustrator 25.1.0, SVG Export Plug-In . SVG Version: 6.00 Build 0)  -->
<svg version="1.1" id="Layer_1" focusable="false" xmlns="http://www.w3.org/2000/svg" xmlns:xlink="http://www.w3.org/1999/xlink"
	 x="0px" y="0px" viewBox="0 0 320 512" style="enable-background:new 0 0 320 512;" xml:space="preserve">
<style type="text/css">
	.st0{fill:#FFFFFF;}
</style>
<path class="st0" d="M310.7,413.8c-1.3-6.6-7.8-10.9-14.4-9.4c-10.7,2.4-27.4,5.4-45.4,5.4c-56.8,0-101.9-34.8-121.5-85.4h113.7
	c5.6,0,10.5-3.9,11.7-9.4l6.4-28.4c1.7-7.5-4-14.6-11.7-14.6H115.2c-1.2-14.3-1.4-28.3,0.1-42.2H262c5.6,0,10.5-3.9,11.7-9.4
	l6.5-29.8c1.6-7.5-4.1-14.6-11.7-14.6H130.2c20.6-45,62.7-75,117.6-75c14.5,0,28.6,2.2,37.9,4.1c6.2,1.3,12.3-2.5,14-8.6l12-44.4
	c1.8-6.7-2.5-13.6-9.3-14.9c-12.1-2.3-31.6-5.2-52.7-5.2C152.5,32,74,92.3,45.1,176H12c-6.6,0-12,5.4-12,12v29.8c0,6.6,5.4,12,12,12
	h21.6c-1,13.6-1.2,29.3-0.2,42.2H12c-6.6,0-12,5.4-12,12v28.4c0,6.6,5.4,12,12,12h30.1C67.1,414.7,145.3,480,249.6,480
	c26.3,0,48.6-4.5,61.1-7.8c6.2-1.6,10-7.7,8.8-14L310.7,413.8z"/>
</svg>
