<?xml version="1.0" encoding="utf-8"?>
<!-- Generator: Adobe Illustrator 25.1.0, SVG Export Plug-In . SVG Version: 6.00 Build 0)  -->
<svg version="1.1" id="Layer_1" focusable="false" xmlns="http://www.w3.org/2000/svg" xmlns:xlink="http://www.w3.org/1999/xlink"
	 x="0px" y="0px" viewBox="0 0 640 512" style="enable-background:new 0 0 640 512;" xml:space="preserve">
<style type="text/css">
	.st0{fill:#FFFFFF;}
</style>
<path class="st0" d="M384,320H256c-17.7,0-32,14.3-32,32v128c0,17.7,14.3,32,32,32h128c17.7,0,32-14.3,32-32V352
	C416,334.3,401.7,320,384,320z M192,32c0-17.7-14.3-32-32-32H32C14.3,0,0,14.3,0,32v128c0,17.7,14.3,32,32,32h95.7l73.2,128
	c11.1-19.1,31.5-32,55.1-32h0.3L192,175.5V128h224V64H192V32z M608,0H480c-17.7,0-32,14.3-32,32v128c0,17.7,14.3,32,32,32h128
	c17.7,0,32-14.3,32-32V32C640,14.3,625.7,0,608,0z"/>
</svg>
