<?xml version="1.0" encoding="utf-8"?>
<!-- Generator: Adobe Illustrator 25.1.0, SVG Export Plug-In . SVG Version: 6.00 Build 0)  -->
<svg version="1.1" id="Layer_1" focusable="false" xmlns="http://www.w3.org/2000/svg" xmlns:xlink="http://www.w3.org/1999/xlink"
	 x="0px" y="0px" viewBox="0 0 512 512" style="enable-background:new 0 0 512 512;" xml:space="preserve">
<style type="text/css">
	.st0{fill:#FFFFFF;}
</style>
<path class="st0" d="M256,8C119,8,8,119.1,8,256c0,137,111,248,248,248s248-111,248-248C504,119.1,393,8,256,8z M256,430
	c-25.4,0-46-20.6-46-46s20.6-46,46-46c25.4,0,46,20.6,46,46S281.4,430,256,430z M296,298.7v1.3c0,6.6-5.4,12-12,12h-56
	c-6.6,0-12-5.4-12-12v-4c0-41.1,31.1-57.5,54.7-70.7c20.2-11.3,32.5-19,32.5-34c0-19.8-25.3-33-45.7-33c-27.2,0-39.4,13.1-57.3,35.8
	c-4,5.1-11.5,6.1-16.7,2.1L148.8,170c-5.1-3.9-6.2-11-2.7-16.3C173.4,113,208.2,90,262.7,90c56.4,0,116.5,44,116.5,102
	C379.2,269,296,270.2,296,298.7z"/>
</svg>
