<?xml version="1.0" encoding="utf-8"?>
<!-- Generator: Adobe Illustrator 25.1.0, SVG Export Plug-In . SVG Version: 6.00 Build 0)  -->
<svg version="1.1" id="Layer_1" xmlns="http://www.w3.org/2000/svg" xmlns:xlink="http://www.w3.org/1999/xlink" x="0px" y="0px"
	 viewBox="0 0 200 50" style="enable-background:new 0 0 200 50;" xml:space="preserve">
<style type="text/css">
	.st0{fill:#62C634;}
	.st1{fill:#79797B;}
</style>
<g>
	<path class="st0" d="M191.66,20.56c0,3.1,0.08,6.21-0.02,9.31c-0.25,7.55-3.54,10.14-10.73,11.43c-1.96,0.35-4,0.16-6.03-0.36
		c-4.62-1.18-6.69-4.4-7.54-8.73c-0.92-4.67-0.61-9.18,1.81-13.42c3.43-5.98,11.34-6.03,14.58-2.22c0.24,0.29,0.51,0.73,0.94,0.51
		c0.42-0.21,0.23-0.71,0.23-1.08c0.01-2.37,0.15-4.75-0.04-7.1c-0.15-1.82,0.53-2.23,2.16-2.06c1.27,0.13,2.63-0.18,3.61,0.97
		c0.72,0.84,1.06,1.79,1.05,2.94C191.62,14.02,191.66,17.29,191.66,20.56z M173.6,27.97c0.15,1.02,0.25,2.32,0.55,3.57
		c0.62,2.58,2.71,4.15,5.27,4.13c2.4-0.02,4.23-1.54,4.92-4.07c0.7-2.56,0.72-5.1-0.01-7.66c-0.62-2.21-2.21-3.64-4.54-3.88
		c-2.23-0.23-3.94,0.6-5.07,2.58C173.83,24.21,173.8,25.96,173.6,27.97z"/>
	<path class="st1" d="M49.05,17.85c0-3.32,0.12-6.19-0.04-9.04c-0.1-1.71,0.51-2.22,2.08-1.97c0.33,0.05,0.68,0,1.01,0.01
		c2.32,0.04,3.68,1.33,3.69,3.67c0.03,6.49,0.15,12.98-0.03,19.46c-0.18,6.74-2.75,10.14-11.22,11.36c-1.32,0.19-2.71,0.08-4.05-0.1
		c-4.8-0.65-7.72-3.44-8.79-8.12c-1-4.38-1-8.73,0.85-12.92c2.19-4.96,7.02-7.27,11.9-5.81C46.26,14.93,47.53,16.18,49.05,17.85z
		 M49.08,27.63c-0.11-0.93-0.17-2.01-0.38-3.05c-0.59-2.88-2.51-4.51-5.26-4.55c-2.67-0.04-4.51,1.48-5.23,4.33
		c-0.6,2.4-0.52,4.81,0.1,7.18c0.67,2.56,2.65,4.09,5.11,4.12c2.48,0.03,4.18-1.29,5.04-3.91C48.89,30.46,48.93,29.11,49.08,27.63z"
		/>
	<path class="st0" d="M89.5,29.54c-2.43,0-4.85,0.04-7.28-0.02c-1.06-0.02-1.38,0.29-1.19,1.38c0.36,2.07,1.13,3.82,3.31,4.44
		c2.25,0.64,4.36,0.43,5.97-1.56c0.56-0.7,1.34-1.01,2.23-1.03c0.85-0.02,1.69-0.01,2.54-0.01c2.87,0,2.95,0.12,1.57,2.73
		c-2.78,5.24-8.62,6.87-14.12,5.59c-4.5-1.04-7.08-4.11-8.14-8.52c-0.9-3.75-0.9-7.52,0.36-11.17c1.88-5.41,6.94-8.12,12.97-7.27
		c6.99,0.98,9.71,5.52,10.3,12.17c0.29,3.26,0.19,3.27-3.1,3.27c-0.9,0-1.81,0.01-2.71,0.01c-0.9,0-1.81,0-2.71,0
		C89.5,29.54,89.5,29.54,89.5,29.54z M85.98,25.13c1.24,0,2.47-0.05,3.7,0.02c0.88,0.04,1.2-0.23,1.1-1.14
		c-0.25-2.35-2.21-4.19-4.62-4.26c-2.67-0.08-4.8,1.62-5.15,4.08c-0.13,0.89,0.03,1.38,1.09,1.33
		C83.39,25.08,84.69,25.13,85.98,25.13z"/>
	<path class="st1" d="M29.74,26.73c-0.1,1.82,0.15,4.01-0.21,6.2c-0.69,4.18-3.05,6.85-7.15,7.82c-3.88,0.92-7.79,1.34-11.5-0.79
		c-2.76-1.58-3.45-4.18-3.42-7.06c0.03-2.81,0.96-5.14,3.67-6.54c2.21-1.14,4.57-1.57,6.97-1.88c1.18-0.15,2.35-0.34,3.45-0.8
		c0.91-0.38,1.67-0.95,1.55-2.15c-0.12-1.11-0.92-1.57-1.81-1.73c-2.27-0.41-4.61-0.91-6.38,1.29c-0.34,0.42-0.83,0.28-1.26,0.28
		c-1.41,0.02-2.83-0.07-4.23,0.03c-1.23,0.09-1.24-0.39-0.96-1.36c0.93-3.29,4.06-5.65,8.2-5.99c2.54-0.21,5.06-0.07,7.55,0.61
		c3.55,0.97,5.51,3.45,5.55,7.12C29.75,23.31,29.74,24.83,29.74,26.73z M23.31,29.6c-0.42-0.39,0.68-1.83-0.72-1.56
		c-2.36,0.45-4.67,1.21-6.94,2.02c-1.57,0.56-1.91,2-1.68,3.49c0.23,1.52,1.22,2.31,2.78,2.45C20.77,36.37,23.28,33.98,23.31,29.6z"
		/>
	<path class="st0" d="M99.47,28.45c0.06-5.44,1.03-9.55,4.87-12.42c5.67-4.24,15.13-1.86,18.04,4.53c0.86,1.89,0.78,2.03-1.27,2.04
		c-0.9,0.01-1.81-0.06-2.71,0.01c-1.35,0.11-2.31-0.19-3.29-1.36c-2.23-2.66-6.81-1.77-8.04,1.48c-1.18,3.09-1.2,6.32-0.12,9.42
		c1.29,3.71,5.84,4.82,8.59,2.03c2.18-2.21,4.74-1.21,7.17-1.38c0.74-0.05,0.41,0.6,0.27,1.01c-1.45,4.23-4.51,6.7-8.8,7.41
		c-5.9,0.97-11.23-0.75-13.67-7.09C99.7,32,99.43,29.77,99.47,28.45z"/>
	<path class="st0" d="M57.86,34.28c0.21-3.58-0.18-6.56,0.32-9.54c0.85-5.07,4.22-8.71,9.22-9.68c5.39-1.05,5.4-1.05,5.33,4.41
		c-0.03,2.49,0.38,2.23-2.25,2.25c-3.93,0.04-5.5,1.59-5.53,5.53c-0.03,4-0.07,8.01,0.03,12.01c0.04,1.41-0.45,1.74-1.73,1.65
		c-1.35-0.09-2.71-0.06-4.06,0.01c-1,0.05-1.41-0.22-1.35-1.32C57.93,37.62,57.86,35.65,57.86,34.28z"/>
	<path class="st0" d="M151.04,32.32c0.17-2.71-0.34-5.94,0.57-9.1c1.31-4.58,4.39-7.26,8.95-8.15c5.3-1.04,5.32-0.94,5.34,4.43
		c0.01,2.21,0,2.32-2.17,2.2c-3.84-0.23-5.85,2.01-5.83,5.91c0.03,3.94-0.04,7.89,0.03,11.83c0.02,1.21-0.37,1.56-1.53,1.48
		c-1.4-0.1-2.82-0.08-4.23-0.01c-0.92,0.04-1.15-0.32-1.14-1.17C151.07,37.42,151.04,35.11,151.04,32.32z"/>
	<path class="st0" d="M149.29,29.11c-0.13,1.53-0.44,3-0.87,4.47c-0.31,1.08-0.73,1.17-1.67,0.62c-3.29-1.93-4.99-5.06-6.38-8.39
		c-1.29-3.08-1.68-6.38-1.86-9.71c-0.07-1.31,0.35-1.49,1.55-1.16c4.42,1.22,8.45,6.06,8.99,10.97
		C149.17,26.98,149.21,28.05,149.29,29.11z"/>
	<path class="st0" d="M124.52,28.26c0.08-5.64,2.48-9.97,7.56-12.72c0.2-0.11,0.39-0.23,0.6-0.31c2.35-0.95,2.51-0.75,2.34,1.79
		c-0.32,4.92-1.51,9.54-4.39,13.62c-1.05,1.48-2.33,2.72-3.92,3.63c-0.71,0.4-1.02,0.34-1.35-0.49
		C124.66,32.02,124.63,30.17,124.52,28.26z"/>
	<path class="st0" d="M145.51,38.21c-4.12,4.99-12.36,5.35-16.66,0.77c-0.25-0.26-1.05-0.53-0.15-1.08
		c3.98-2.46,5.98-6.38,7.63-10.54c0.06-0.16,0.14-0.31,0.24-0.44c0.05-0.07,0.16-0.11,0.39-0.26
		C138.75,31.25,140.92,35.57,145.51,38.21z"/>
</g>
</svg>
