<?xml version="1.0" encoding="utf-8"?>
<!-- Generator: Adobe Illustrator 25.1.0, SVG Export Plug-In . SVG Version: 6.00 Build 0)  -->
<svg version="1.1" id="Layer_1" xmlns="http://www.w3.org/2000/svg" xmlns:xlink="http://www.w3.org/1999/xlink" x="0px" y="0px"
	 viewBox="0 0 200 50" style="enable-background:new 0 0 200 50;" xml:space="preserve">
<style type="text/css">
	.st0{fill:#050505;}
</style>
<g>
	<path class="st0" d="M44.75,46.17c-3.45-3.44-7.11-6.47-11.26-8.88c-5.48-3.18-11.35-5.07-17.72-5.13
		c-2.64-0.02-5.26,0.25-7.79,1.1c-0.66,0.22-0.96,0.17-1.24-0.53c-1.44-3.59-2.95-7.16-4.43-10.74c-0.44-1.06-0.43-1.09,0.76-1.01
		c5.56,0.36,11.02,1.25,16.27,3.17c0.78,0.29,1,0.09,1.27-0.61c1.66-4.31,3.39-8.59,5.04-12.9c0.27-0.7,0.62-0.93,1.33-0.87
		c0.71,0.07,1.38-0.13,1.77,0.87c3.45,8.87,6.97,17.72,10.45,26.57c0.2,0.51,0.54,0.91,0.88,1.32c1.67,2.04,3.17,4.2,4.42,6.53
		C44.66,45.36,44.93,45.65,44.75,46.17z M27.19,18.9c-0.79,2.29-1.46,4.38-2.23,6.44c-0.31,0.82-0.12,1.17,0.65,1.53
		c1.09,0.51,2.11,1.17,3.16,1.78c0.7,0.41,1.38,0.86,2.32,1.45C29.74,26.23,28.5,22.66,27.19,18.9z"/>
	<path class="st0" d="M53.96,38.13c-6.48,3.76-13.61,0.2-14.47-6.97c-0.3-2.48-0.18-4.9,0.77-7.23c2.1-5.14,7.47-7.6,12.72-5.78
		c0.81,0.28,1.01,0.21,0.98-0.68c-0.06-2.2,0.01-4.41-0.04-6.62c-0.01-0.64,0.23-0.87,0.79-0.99c1.15-0.25,2.29-0.51,3.42-0.81
		c0.61-0.16,0.89-0.12,0.89,0.64c-0.02,9.57-0.02,19.14,0,28.71c0,0.72-0.27,0.81-0.87,0.79c-1.07-0.04-2.14-0.04-3.21,0
		C54.29,39.21,53.74,39.19,53.96,38.13z M53.96,28.63c0-1.53-0.06-3.06,0.02-4.58c0.04-0.82-0.3-1.23-0.96-1.58
		c-2.91-1.58-6.7-0.15-7.86,2.95c-0.54,1.43-0.64,2.91-0.52,4.4c0.34,4.41,4.68,6.85,8.51,4.83c0.57-0.3,0.84-0.66,0.82-1.33
		C53.93,31.76,53.96,30.2,53.96,28.63z"/>
	<path class="st0" d="M103.14,37.45c-2.92,2.46-6.18,2.72-9.56,1.46c-4.86-1.81-4.59-9.07-0.96-11.63c2.72-1.93,5.79-2.28,8.97-2.02
		c0.97,0.08,1.03-0.19,0.81-0.94c-0.32-1.07-1.02-1.78-2.08-2.11c-2.16-0.67-4.3-0.45-6.39,0.29c-0.6,0.21-0.82,0.12-0.96-0.46
		c-0.22-0.9-0.46-1.79-0.73-2.68c-0.13-0.43-0.03-0.65,0.4-0.8c3.77-1.33,7.56-1.56,11.24,0.14c2.73,1.26,3.34,3.89,3.64,6.59
		c0.3,2.66,0.11,5.33,0.18,8c0.04,1.61,0.17,3.21,1.41,4.45c0.39,0.38,0.06,0.64-0.16,0.9c-1.06,1.28-3.68,1.29-4.9,0
		C103.72,38.28,103.45,37.85,103.14,37.45z M102.59,30.73c-0.24-0.43,0.5-1.33-0.49-1.52c-1.86-0.36-3.71-0.24-5.41,0.65
		c-1.35,0.71-1.93,2.21-1.57,3.74c0.3,1.26,1.28,1.89,2.95,1.92C101.19,35.59,102.59,34.13,102.59,30.73z"/>
	<path class="st0" d="M173.59,28.53c0.01,3.44-0.78,6.6-3.56,8.87c-3.26,2.66-7.04,2.76-10.81,1.47c-3.58-1.22-5.32-4.15-5.88-7.74
		c-0.61-3.86-0.18-7.56,2.66-10.56c3.09-3.27,6.99-3.64,11.04-2.49c3.78,1.07,5.67,3.93,6.35,7.68
		C173.55,26.69,173.62,27.61,173.59,28.53z M158.39,28.64c0,1.22,0.13,2.42,0.52,3.57c0.72,2.1,2.12,3.15,4.28,3.22
		c1.99,0.07,3.66-0.95,4.42-2.91c1.05-2.69,1.07-5.45,0-8.12c-1.27-3.15-5.64-3.66-7.75-1C158.65,24.95,158.41,26.77,158.39,28.64z"
		/>
	<path class="st0" d="M179.68,19.97c3.09-2.7,6.36-2.96,9.73-1.69c3.07,1.15,4.45,3.73,4.53,6.88c0.12,4.45,0.02,8.9,0.05,13.34
		c0,0.61-0.24,0.7-0.75,0.69c-1.14-0.03-2.28-0.05-3.42,0.01c-0.68,0.03-0.83-0.21-0.82-0.85c0.03-3.63,0.02-7.26,0.01-10.89
		c0-0.6-0.01-1.21-0.09-1.81c-0.4-3.15-2.77-4.61-5.78-3.56c-0.56,0.2-1.1,0.5-1.62,0.81c-0.81,0.48-1.2,1.13-1.19,2.17
		c0.07,4.38,0.01,8.75,0.05,13.13c0.01,0.8-0.2,1.06-1.01,1c-1.06-0.07-2.14-0.04-3.21-0.01c-0.57,0.02-0.82-0.1-0.82-0.75
		c0.02-6.55,0.02-13.1,0-19.64c0-0.58,0.13-0.89,0.77-0.81c0.25,0.03,0.5,0.02,0.75,0C178.22,17.93,179.64,17.75,179.68,19.97z"/>
	<path class="st0" d="M120.28,39.56c-2.44,0.12-4.81-0.35-6.88-1.88c-3.05-2.24-3.96-5.45-3.93-9.01c0.03-4.16,1.53-7.66,5.36-9.64
		c3.92-2.03,7.98-2.14,11.95,0.07c0.65,0.36,0.87,0.69,0.38,1.38c-0.55,0.78-0.99,1.64-1.44,2.49c-0.22,0.42-0.4,0.47-0.78,0.16
		c-0.88-0.71-1.92-1.06-3.03-1.23c-3.62-0.53-6.3,1.35-7,4.94c-0.25,1.27-0.25,2.56-0.02,3.82c0.72,4,4.98,5.9,9.05,4.06
		c0.16-0.07,0.31-0.18,0.48-0.24c0.56-0.18,0.96-1.04,1.49-0.76c0.43,0.24,0.58,1.01,0.84,1.55c1.15,2.41,1.15,2.41-1.35,3.49
		C123.79,39.47,122.09,39.6,120.28,39.56z"/>
	<path class="st0" d="M63.41,28.28c0-1.78-0.04-3.56,0.02-5.34c0.03-0.78-0.25-1.02-0.97-0.92c-0.24,0.03-0.5-0.02-0.75,0.01
		c-0.66,0.09-0.88-0.16-0.83-0.83c0.06-0.78,0.07-1.57,0-2.35c-0.07-0.78,0.25-1.02,0.97-0.92c0.24,0.03,0.5-0.03,0.75,0.01
		c0.67,0.1,0.83-0.19,0.84-0.83c0.02-1.16-0.5-2.59,0.2-3.4c0.65-0.76,2.03-0.89,3.1-1.3c1.78-0.67,1.78-0.67,1.78,1.19
		c0,1.21,0.02,2.42-0.01,3.63c-0.02,0.57,0.18,0.73,0.74,0.72c1.42-0.03,2.85,0.01,4.27-0.02c0.62-0.02,0.83,0.2,0.78,0.8
		c-0.08,1.06,0.43,2.41-0.19,3.1c-0.59,0.65-1.95,0.13-2.97,0.2c-0.84,0.06-1.94-0.37-2.47,0.17c-0.52,0.53-0.14,1.62-0.15,2.47
		c-0.02,2.1-0.01,4.2-0.01,6.3c0,0.25,0.01,0.5,0.01,0.75c0.02,2.99,1.41,4.17,4.75,3.3c0.92-0.24,1.19-0.19,1.08,0.79
		c-0.07,0.6-0.01,1.21-0.01,1.81c-0.03,1.97,0.28,1.53-1.61,1.85c-1.37,0.22-2.78,0.19-4.16,0.04c-2.97-0.34-5-2.67-5.12-5.88
		c-0.06-1.78-0.01-3.56-0.01-5.34C63.42,28.28,63.41,28.28,63.41,28.28z"/>
	<path class="st0" d="M136.34,27.6c0,1.35-0.01,2.71,0,4.06c0.02,3.12,1.66,4.35,4.67,3.39c1.04-0.33,1.21-0.07,1.12,0.87
		c-0.06,0.56,0,1.14-0.01,1.71c-0.03,1.89,0.33,1.56-1.61,1.85c-1.41,0.21-2.86,0.23-4.26,0.01c-3.09-0.48-4.98-2.85-5.01-6.21
		c-0.03-3.38-0.04-6.76,0.02-10.14c0.01-0.88-0.21-1.16-1.11-1.11c-1.42,0.08-1.42,0.02-1.42-1.38c0-0.21,0-0.43,0-0.64
		c0-1.9,0-1.93,1.88-2.02c0.54-0.03,0.67-0.23,0.64-0.71c-0.03-0.46,0-0.93-0.01-1.39c0-2.26,0-2.26,2.08-3
		c0.77-0.27,1.54-0.54,2.3-0.85c0.57-0.23,0.75-0.06,0.73,0.54c-0.03,1.46,0.03,2.92-0.03,4.38c-0.03,0.77,0.14,1.07,0.98,1.02
		c1.31-0.08,2.64,0.01,3.95-0.03c0.62-0.02,0.92,0.13,0.87,0.82c-0.05,0.85-0.04,1.71,0,2.56c0.03,0.57-0.18,0.73-0.74,0.72
		c-1.42-0.03-2.85,0.01-4.28-0.02c-0.59-0.02-0.8,0.15-0.79,0.77C136.37,24.39,136.34,25.99,136.34,27.6z"/>
	<path class="st0" d="M28.42,7.99c-8.24-0.03-14.83,4.43-17.38,11.06c-0.28,0.73-0.64,0.92-1.34,0.76
		c-0.66-0.14-1.33-0.32-1.99-0.34c-1.02-0.02-0.86-0.55-0.63-1.19c1.44-3.97,3.76-7.34,7.17-9.85c8.08-5.96,18.26-5.84,26.24,0.24
		c2.32,1.77,4.09,4.02,5.52,6.56c0.3,0.54,0.35,0.84-0.38,1.06c-0.74,0.23-1.46,0.58-2.12,0.99c-0.58,0.36-0.77,0.21-1.1-0.34
		C39.02,11.21,33.94,8.27,28.42,7.99z"/>
	<path class="st0" d="M81.85,19.54c2.48-2.14,5.24-2.33,8.19-1.64c0.91,0.22,1.18,0.56,0.63,1.44c-0.54,0.87-0.94,1.83-1.37,2.77
		c-0.21,0.46-0.43,0.51-0.9,0.31c-3.5-1.47-6.57,0.55-6.63,4.41c-0.06,3.77-0.04,7.54,0.01,11.31c0.01,0.82-0.17,1.14-1.05,1.07
		c-1.1-0.08-2.21-0.05-3.31-0.01c-0.59,0.02-0.79-0.15-0.79-0.77c0.02-6.55,0.03-13.09,0-19.64c0-0.74,0.27-0.89,0.93-0.87
		c1.03,0.04,2.07,0.07,3.1,0c0.87-0.06,1.27,0.2,1.12,1.1C81.75,19.16,81.81,19.29,81.85,19.54z"/>
	<path class="st0" d="M17.03,39.74c1.38,0.54,2.58,1.43,3.98,1.96c4.57,1.73,9.06,1.59,13.46-0.49c0.85-0.4,1.43-0.35,2.1,0.22
		c0.57,0.48,1.19,0.9,1.79,1.34c0.62,0.45,0.3,0.67-0.18,0.96c-3.74,2.26-7.81,3.24-12.14,3.01c-5.48-0.29-10.17-2.45-14.07-6.31
		c-1.24-1.23-2.22-2.67-3.18-4.13c-0.5-0.76-0.19-0.98,0.53-1.25c1.84-0.67,3.43-0.85,4.44,1.33c0.24,0.51,0.59,1.16,1.32,1.27
		c-0.07,0.27-0.12,0.54-0.22,0.8c-0.12,0.33-0.02,0.51,0.31,0.43C16.05,38.68,16.52,39.23,17.03,39.74z"/>
	<path class="st0" d="M151.48,28.62c0,3.23-0.02,6.47,0.02,9.7c0.01,0.72-0.21,0.92-0.9,0.89c-1.07-0.05-2.14-0.07-3.2,0
		c-0.87,0.06-1.14-0.19-1.13-1.09c0.05-4.98-0.01-9.95,0.05-14.93c0.01-0.95-0.25-1.29-1.18-1.14c-0.31,0.05-0.64-0.01-0.96,0.01
		c-0.42,0.03-0.55-0.14-0.54-0.55c0.02-0.99,0.03-1.99,0-2.99c-0.01-0.49,0.2-0.59,0.64-0.59c2.17,0.02,4.34,0.03,6.51,0
		c0.7-0.01,0.71,0.36,0.71,0.87C151.47,22.08,151.48,25.35,151.48,28.62z"/>
	<path class="st0" d="M17.03,39.74c-0.51-0.5-0.98-1.06-1.84-0.86c-0.33,0.08-0.43-0.11-0.31-0.43c0.1-0.26,0.15-0.53,0.22-0.8
		c0.38-0.99,0.78-1.98,1.13-2.98c0.15-0.42,0.36-0.61,0.84-0.61c1.35,0,2.7,0.1,4.04,0.23c0.64,0.06,0.75,0.32,0.53,0.9
		c-0.41,1.09-0.81,2.2-1.14,3.32c-0.16,0.55-0.45,0.72-0.99,0.69c-0.67-0.04-1.35-0.01-2.02-0.01
		C17.1,39.18,16.82,39.26,17.03,39.74z"/>
	<path class="st0" d="M148.98,15.63c-1.62,0.03-2.93-1.22-2.98-2.83c-0.05-1.68,1.2-3.01,2.87-3.04c1.62-0.04,2.93,1.21,2.98,2.83
		C151.89,14.27,150.64,15.61,148.98,15.63z"/>
</g>
</svg>
