<?xml version="1.0" encoding="utf-8"?>
<!-- Generator: Adobe Illustrator 25.1.0, SVG Export Plug-In . SVG Version: 6.00 Build 0)  -->
<svg version="1.1" id="Layer_1" xmlns="http://www.w3.org/2000/svg" xmlns:xlink="http://www.w3.org/1999/xlink" x="0px" y="0px"
	 viewBox="0 0 200 50" style="enable-background:new 0 0 200 50;" xml:space="preserve">
<style type="text/css">
	.st0{fill:#232225;}
	.st1{fill:#1693D0;}
</style>
<g>
	<path class="st0" d="M62.95,12.62c1.11,0.43,1.37,1.32,1.37,2.42c-0.02,5.86-0.01,11.72-0.01,17.57c0,0.94,0.1,1.03,1.06,1.02
		c0.27,0,0.53,0.12,0.81,0.02c0.25-0.09,0.26,0.14,0.26,0.31c0.01,0.74,0,1.48,0.01,2.21c0,0.25-0.11,0.33-0.35,0.33
		c-1.08-0.01-2.15,0.04-3.23-0.04c-1.22-0.08-1.7-0.67-1.72-1.9c0-0.17,0-0.33,0-0.5c-0.19-0.07-0.21,0.1-0.28,0.18
		c-1.01,1.41-2.36,2.26-4.07,2.53c-0.08,0.01-0.16,0.02-0.2,0.12c-0.84,0-1.69,0-2.53,0c-0.02-0.14-0.13-0.14-0.23-0.17
		c-3.01-0.72-4.72-2.74-5.46-5.61c-0.75-2.93-0.63-5.82,0.9-8.51c2.14-3.78,6.55-4.3,9.39-3.05c0.92,0.4,1.66,1.04,2.29,1.93
		c0-1.86,0-3.62,0-5.37c0-0.4-0.22-0.62-0.63-0.65c-0.06,0-0.13-0.01-0.19-0.02c-0.41-0.06-1.01,0.2-1.2-0.1
		c-0.21-0.33-0.09-0.89-0.09-1.35c0-0.46,0.03-0.92,0.04-1.39C60.24,12.62,61.6,12.62,62.95,12.62z M61.08,28.02
		c0.03-1.18-0.18-2.31-0.68-3.38c-0.75-1.6-1.95-2.65-3.77-2.78c-1.96-0.14-3.49,0.69-4.39,2.41c-1.3,2.51-1.29,5.11,0.12,7.56
		c1.63,2.85,5.63,2.97,7.56,0.31C60.81,30.92,61.04,29.5,61.08,28.02z"/>
	<path class="st1" d="M91.05,36.9c-0.05-0.04-0.09-0.1-0.15-0.11c-3.26-0.64-5.07-2.75-5.83-5.85c-0.68-2.78-0.54-5.53,0.82-8.11
		c1.68-3.2,5.53-4.68,8.93-3.5c1.15,0.4,2.1,1.07,2.79,2.05c0.15-0.01,0.14-0.1,0.14-0.17c-0.01-1.58-0.01-3.16-0.03-4.74
		c-0.01-0.81-0.19-0.98-1.01-1.03c-1.13-0.06-1.13-0.06-1.13-1.18c0-0.55,0.02-1.09,0.02-1.64c1.35,0,2.7,0,4.05,0
		c1.19,0.42,1.39,1.39,1.38,2.48c-0.01,5.79,0,11.59,0,17.38c0,1.07,0.11,1.18,1.19,1.22c0.92,0.03,0.94,0.03,0.92,0.9
		c-0.01,0.61,0.26,1.39-0.11,1.77c-0.4,0.41-1.2,0.11-1.82,0.13c-0.57,0.02-1.14,0.01-1.7-0.05c-1.16-0.14-1.61-0.67-1.64-1.84
		c0-0.18,0.06-0.37-0.07-0.57c-0.29,0.35-0.56,0.69-0.86,1.01c-0.79,0.82-1.75,1.36-2.87,1.65c-0.21,0.05-0.47,0-0.63,0.22
		C92.66,36.9,91.86,36.9,91.05,36.9z M88.12,27.93c-0.01,0.86,0.07,1.65,0.29,2.43c0.58,2.03,2.14,3.47,3.93,3.63
		c2.13,0.19,3.91-0.71,4.73-2.55c1.06-2.36,1.05-4.76-0.1-7.08c-0.75-1.52-2.01-2.42-3.75-2.5c-1.86-0.09-3.25,0.74-4.2,2.31
		C88.31,25.34,88.08,26.63,88.12,27.93z"/>
	<path class="st1" d="M151.2,36.9c-0.06-0.05-0.12-0.12-0.19-0.13c-1.61-0.37-2.89-1.23-3.9-2.62c0,0.66-0.02,1.24,0.01,1.83
		c0.01,0.4-0.12,0.56-0.54,0.54c-0.69-0.03-1.39-0.04-2.09,0c-0.47,0.03-0.55-0.17-0.55-0.59c0.01-3.33,0.01-6.66,0.01-9.98
		c0-3.1,0-6.19,0-9.29c0-1.05-0.16-1.21-1.2-1.22c-0.11,0-0.21-0.01-0.32,0.01c-0.49,0.07-0.67-0.11-0.64-0.62
		c0.05-0.73,0.04-1.47,0.05-2.21c1.35,0,2.7,0,4.05,0c1.08,0.44,1.34,1.29,1.32,2.37c-0.05,2.04-0.02,4.09-0.03,6.13
		c0,0.14,0,0.28,0,0.39c0.17,0.04,0.21-0.04,0.26-0.1c2.55-3.49,9.4-3.59,11.75,1.66c1.62,3.63,1.54,7.3-0.66,10.74
		c-1.05,1.64-2.64,2.56-4.54,2.96c-0.1,0.02-0.21,0.01-0.25,0.14C152.88,36.9,152.04,36.9,151.2,36.9z M147.14,27.93
		c-0.02,1.13,0.19,2.23,0.66,3.25c0.77,1.7,2.02,2.8,3.96,2.87c1.85,0.07,3.31-0.72,4.18-2.33c1.36-2.52,1.33-5.1-0.04-7.6
		c-0.85-1.55-2.27-2.3-4.04-2.24c-1.78,0.06-3.12,0.92-3.95,2.51C147.34,25.5,147.16,26.7,147.14,27.93z"/>
	<path class="st0" d="M35.6,36.9c-0.15-0.24-0.43-0.22-0.66-0.29c-3.52-1.03-5.02-5.09-2.89-7.85c0.82-1.06,1.94-1.66,3.18-2.09
		c2.04-0.7,4.17-0.85,6.3-0.85c0.52,0,0.72-0.12,0.64-0.66c-0.08-0.56-0.13-1.13-0.33-1.67c-0.31-0.85-0.89-1.41-1.76-1.67
		c-1.15-0.34-2.3-0.31-3.43,0.03c-0.85,0.26-1.1,0.6-1.05,1.49c0.02,0.46-0.11,0.58-0.55,0.56c-0.72-0.03-1.43-0.02-2.15,0
		c-0.3,0.01-0.41-0.09-0.39-0.39c0.02-0.53-0.01-1.05,0.02-1.58c0.05-0.88,0.58-1.47,1.29-1.91c0.82-0.51,1.73-0.77,2.68-0.89
		c1.86-0.22,3.7-0.26,5.49,0.41c1.77,0.66,2.81,1.94,3.23,3.76c0.17,0.76,0.26,1.53,0.25,2.32c-0.01,2.36,0,4.72,0,7.08
		c0,0.81,0.11,0.91,0.9,0.92c1.25,0.02,1.25,0.02,1.25,1.29c0,1.6,0,1.61-1.61,1.6c-0.65,0-1.31,0.02-1.96-0.06
		c-1.18-0.14-1.66-0.71-1.68-1.89c0-0.25,0-0.5,0-0.75c-0.15-0.01-0.18,0.1-0.23,0.18c-0.94,1.51-2.24,2.49-4.02,2.79
		c-0.05,0.01-0.08,0.08-0.12,0.12C37.2,36.9,36.4,36.9,35.6,36.9z M40.45,28.27c-0.38,0.02-0.82,0.02-1.26,0.06
		c-1.2,0.13-2.39,0.3-3.44,0.94c-0.96,0.58-1.41,1.45-1.27,2.56c0.14,1.07,0.76,1.81,1.78,2.17c1.53,0.53,2.91,0.21,4.09-0.88
		c1.07-0.99,1.61-2.25,1.8-3.66c0.16-1.18,0.14-1.19-1.08-1.18C40.89,28.27,40.7,28.27,40.45,28.27z"/>
	<path class="st1" d="M111.31,36.9c-0.22-0.24-0.53-0.2-0.81-0.26c-4.35-1.05-7.08-4.81-6.91-9.2c0.15-4.01,3.13-7.48,7.25-8.27
		c4.5-0.86,8.8,1.26,10.47,5.17c2.33,5.46-0.94,11.36-6.89,12.44c-0.12,0.02-0.26-0.02-0.33,0.13
		C113.17,36.9,112.24,36.9,111.31,36.9z M107,27.87c-0.01,4.24,3.62,7.06,7.57,5.88c2.97-0.89,4.72-4.25,3.9-7.47
		c-0.74-2.9-3.43-4.78-6.36-4.42C109.12,22.23,107,24.72,107,27.87z"/>
	<path class="st1" d="M129.04,36.9c-0.07-0.04-0.13-0.1-0.21-0.12c-2.64-0.64-3.95-2.1-4.22-4.82c-0.27-2.69-0.07-5.39-0.11-8.09
		c-0.03-1.55,0.18-1.71-1.6-1.65c-0.4,0.01-0.57-0.09-0.55-0.52c0.03-0.63,0.01-1.26,0.01-1.9c0-0.26,0.04-0.46,0.37-0.46
		c1.12,0.02,2.24-0.08,3.35,0.06c1.22,0.15,1.7,0.69,1.71,1.93c0.01,2.61,0,5.23,0.01,7.84c0.01,0.88,0.01,1.77,0.26,2.63
		c0.34,1.18,1.12,1.84,2.34,1.99c2.4,0.29,4.62-1.08,5.57-3.48c0.38-0.95,0.56-1.94,0.55-2.96c-0.01-2.47,0.01-4.93-0.01-7.4
		c0-0.46,0.11-0.64,0.6-0.61c0.71,0.04,1.44,0.04,2.15,0c0.46-0.02,0.55,0.16,0.55,0.58c-0.01,4.11,0,8.22,0,12.33
		c0,0.19-0.01,0.38,0,0.57c0.03,0.51,0.24,0.8,0.82,0.81c1.33,0.04,1.33,0.06,1.33,1.36c0,1.52,0,1.52-1.5,1.51
		c-0.78-0.01-1.56,0.06-2.34-0.08c-0.96-0.18-1.47-0.76-1.49-1.74c-0.01-0.48,0-0.96-0.05-1.46c-0.66,1.11-1.5,2.01-2.59,2.69
		c-0.8,0.5-1.7,0.67-2.56,1C130.64,36.9,129.84,36.9,129.04,36.9z"/>
	<path class="st0" d="M74.47,36.9c-0.48-0.28-1.03-0.29-1.54-0.45c-3.49-1.09-5.92-4.25-6.05-7.91c-0.05-1.36,0.07-2.7,0.53-3.98
		c1.31-3.71,4.58-5.8,8.69-5.55c3.49,0.21,6.07,2.64,6.6,6.21c0.12,0.8,0.14,1.59,0.13,2.4c-0.01,0.54-0.15,0.75-0.75,0.74
		c-3.71-0.03-7.43-0.01-11.14-0.03c-0.53,0-0.69,0.09-0.6,0.66c0.7,4.3,4.95,6.32,9,4.27c0.53-0.27,1.03-0.58,1.49-0.95
		c0.26-0.21,0.4-0.22,0.57,0.1c0.23,0.45,0.51,0.87,0.77,1.3c0.44,0.73,0.45,0.73-0.27,1.26c-1.26,0.92-2.67,1.5-4.21,1.81
		c-0.11,0.02-0.26-0.03-0.31,0.14C76.41,36.9,75.44,36.9,74.47,36.9z M70.47,25.88c0.15,0.01,0.29,0.03,0.43,0.03
		c2.68,0,5.35,0,8.03-0.01c0.22,0,0.5,0.13,0.49-0.33c-0.05-2.18-1.78-3.93-3.96-3.97C72.9,21.55,70.86,23.29,70.47,25.88z"/>
	<path class="st1" d="M176.52,36.9c-0.17-0.23-0.44-0.2-0.68-0.25c-3.98-0.9-6.73-4.28-6.79-8.37c-0.04-2.54,0.59-4.83,2.35-6.74
		c2.34-2.55,6.66-3.35,9.74-1.78c2.18,1.11,3.27,3.02,3.73,5.35c0.18,0.88,0.13,1.76,0.14,2.65c0,0.47-0.18,0.6-0.64,0.59
		c-3.71-0.02-7.43-0.01-11.14-0.01c-0.83,0-0.83,0.01-0.69,0.8c0.72,3.94,4.45,5.92,8.31,4.42c0.75-0.29,1.45-0.68,2.08-1.19
		c0.31-0.25,0.49-0.21,0.69,0.13c0.29,0.51,0.59,1.02,0.93,1.51c0.23,0.33,0.13,0.5-0.15,0.72c-1.35,1.08-2.88,1.72-4.57,2.05
		c-0.13,0.03-0.31-0.03-0.39,0.14C178.46,36.9,177.49,36.9,176.52,36.9z M177.09,25.91C177.09,25.91,177.09,25.91,177.09,25.91
		c1.33,0,2.65,0,3.98,0c0.02,0,0.04,0,0.06,0c0.28,0.02,0.46,0,0.46-0.39c-0.04-1.79-1.37-3.44-3.12-3.83
		c-2.59-0.57-5.26,1.2-5.8,3.81c-0.09,0.42,0.1,0.4,0.38,0.4C174.4,25.91,175.75,25.91,177.09,25.91z"/>
	<path class="st0" d="M22.43,12.62c-0.01,0.71-0.07,1.43-0.03,2.14c0.03,0.61-0.13,0.82-0.79,0.81c-2.3-0.05-4.6,0-6.9-0.03
		c-0.52-0.01-0.67,0.12-0.67,0.65c0.02,6.49,0.01,12.98,0.01,19.47c0,0.99,0.14,0.84-0.88,0.85c-0.65,0.01-1.31-0.03-1.96,0.01
		c-0.5,0.04-0.58-0.16-0.58-0.61c0.02-2.15,0.01-4.3,0.01-6.45c0-4.42-0.01-8.85,0.01-13.27c0-0.53-0.14-0.67-0.66-0.66
		c-1.29,0.04-2.57,0.01-3.86,0.01c-0.81,0-0.98,0.16-1.02,0.94c-0.02,0.42,0.12,0.99-0.09,1.21c-0.29,0.3-0.87,0.09-1.33,0.1
		c-0.5,0.01-1.18,0.17-1.47-0.09c-0.34-0.3-0.1-0.99-0.12-1.51c-0.02-0.55,0.01-1.1-0.01-1.64c-0.04-0.93,0.27-1.63,1.22-1.94
		C9.68,12.62,16.06,12.62,22.43,12.62z"/>
	<path class="st1" d="M164.36,12.62c1.1,0.41,1.39,1.26,1.39,2.35c-0.02,5.84-0.01,11.67-0.01,17.51c0,1.12,0.02,1.14,1.12,1.14
		c0.15,0,0.3,0.02,0.44,0c0.4-0.05,0.57,0.09,0.55,0.52c-0.03,0.63-0.01,1.26,0,1.9c0.01,0.29-0.05,0.48-0.41,0.48
		c-1.16-0.02-2.32,0.09-3.47-0.07c-0.94-0.13-1.41-0.63-1.52-1.58c-0.03-0.27-0.03-0.55-0.03-0.82c0-5.75,0-11.5,0-17.26
		c0-1.23-0.1-1.37-1.32-1.32c-0.65,0.02-0.89-0.15-0.83-0.82c0.07-0.67,0.02-1.35,0.03-2.02C161.66,12.62,163.01,12.62,164.36,12.62
		z"/>
	<path class="st0" d="M24.07,23.14c0.43-0.57,0.72-1.2,1.14-1.74c1.16-1.5,2.66-2.28,4.58-2.23c0.41,0.01,0.6,0.12,0.58,0.58
		c-0.04,0.78-0.02,1.56-0.01,2.34c0,0.28-0.05,0.4-0.39,0.39c-2.72-0.07-4.57,1.29-5.38,3.92c-0.32,1.04-0.43,2.1-0.42,3.18
		c0.01,2.13-0.01,4.25,0.01,6.38c0,0.44-0.11,0.59-0.56,0.57c-0.71-0.04-1.44-0.04-2.15,0c-0.49,0.03-0.59-0.14-0.59-0.6
		c0.02-3.98,0.01-7.96,0.01-11.94c0-0.19,0-0.38,0-0.57c0-1.06-0.13-1.19-1.21-1.19c-0.08,0-0.17-0.01-0.25,0
		c-0.53,0.09-0.76-0.08-0.7-0.67c0.06-0.6,0.02-1.22,0.01-1.83c0-0.26,0.07-0.39,0.35-0.38c1.14,0.04,2.28-0.09,3.41,0.08
		c1,0.15,1.49,0.68,1.55,1.69C24.1,21.79,24.07,22.46,24.07,23.14z"/>
	<path class="st1" d="M191.71,23.15c0.65-1.17,1.33-2.25,2.42-3.01c1-0.71,2.11-1.02,3.34-0.96c0.35,0.02,0.55,0.09,0.53,0.5
		c-0.03,0.8-0.02,1.6-0.01,2.4c0,0.28-0.06,0.43-0.39,0.39c-2.83-0.39-4.92,1.89-5.51,4.43c-0.27,1.16-0.28,2.34-0.28,3.52
		c-0.01,1.83-0.02,3.67,0.01,5.5c0.01,0.48-0.14,0.62-0.61,0.59c-0.63-0.04-1.27-0.05-1.9,0c-0.62,0.05-0.82-0.11-0.81-0.78
		c0.04-4.09,0.02-8.18,0.02-12.26c0-1.17-0.09-1.25-1.26-1.26c-1-0.01-0.86,0.13-0.87-0.87c-0.01-0.46,0.03-0.93-0.01-1.39
		c-0.03-0.45,0.08-0.65,0.58-0.62c1.05,0.07,2.11-0.08,3.16,0.09c1.08,0.17,1.57,0.74,1.58,1.85
		C191.71,21.9,191.71,22.53,191.71,23.15z"/>
</g>
</svg>
